<svg xmlns="http://www.w3.org/2000/svg" viewBox="0 0 174 174">
  <defs>
    <style>
      .cls-1 {
        fill: #32bbcb;
      }

      .cls-2 {
        fill: #fff;
      }
    </style>
  </defs>
  <g id="saniLogo" transform="translate(-101 -88)">
    <rect id="Rectangle_7" data-name="Rectangle 7" class="cls-1" width="174" height="174" rx="20" transform="translate(101 88)"/>
    <g id="technics" transform="translate(137.999 124.951)">
      <g id="Group_10" data-name="Group 10" transform="translate(0.001 0.049)">
        <g id="Group_9" data-name="Group 9">
          <path id="Path_39" data-name="Path 39" class="cls-2" d="M96.5,75.74c-9.023-9.025-8.431-8.453-8.686-8.641L63.925,49.461l9.266-9.267a20.679,20.679,0,0,0,25.6-28.389,2.954,2.954,0,0,0-4.752-.815L86.4,18.63a2.953,2.953,0,0,1-4.176-4.176l7.639-7.64a2.955,2.955,0,0,0-.815-4.753,20.678,20.678,0,0,0-28.383,25.6L49.978,38.352c-2.176-1.693.7,1.2-19.8-20.534l2.148-2.148a2.955,2.955,0,0,0-.569-4.621L15.946,1.558A10.517,10.517,0,0,0,1.518,15.989l9.489,15.818a2.954,2.954,0,0,0,4.62.569l2.026-2.026c20.385,21.62,17.7,18.683,19.314,20.756.038.049.081.092.121.138L27.612,60.72a20.678,20.678,0,0,0-25.6,28.389,2.954,2.954,0,0,0,4.752.815l7.638-7.64A2.953,2.953,0,0,1,18.58,86.46L10.941,94.1a2.955,2.955,0,0,0,.815,4.753,20.678,20.678,0,0,0,28.383-25.6l8.092-8.093,18.841,22.9c.143.174-.33-.31,8.1,8.118a15.846,15.846,0,0,0,11.157,4.659,14.124,14.124,0,0,0,8.29-2.615A14.781,14.781,0,0,0,96.5,75.74ZM19.863,24.085a2.954,2.954,0,0,0-4.236-.062l-1.5,1.5L6.582,12.95a4.611,4.611,0,0,1,6.326-6.327L25.48,14.168l-1.5,1.5a2.954,2.954,0,0,0-.06,4.114C47.463,44.754,43.759,41,45.769,42.561l-4.481,4.482C39.739,45.05,43.335,48.978,19.863,24.085ZM34.569,70.467a2.953,2.953,0,0,0-.576,3.361A14.779,14.779,0,0,1,18.577,94.815l4.178-4.178a8.859,8.859,0,0,0-12.527-12.53L6.05,82.285A14.771,14.771,0,0,1,27.033,66.867a2.952,2.952,0,0,0,3.361-.576l35.84-35.844a2.954,2.954,0,0,0,.577-3.361A14.772,14.772,0,0,1,82.225,6.1l-4.178,4.178a8.859,8.859,0,0,0,12.527,12.53l4.178-4.178A14.771,14.771,0,0,1,73.769,34.047a2.952,2.952,0,0,0-3.36.576Zm17.845-9.494L59.7,53.684l7.427,5.485-8.874,8.875C52.222,60.711,52.6,61.153,52.415,60.973Zm38.75,32.453C87.721,95.907,82.64,95.294,79.345,92l-7.8-7.8L62.025,72.627l9.908-9.91,12.191,9,8.2,8.2A8.864,8.864,0,0,1,91.165,93.426Z" transform="translate(-0.001 -0.049)"/>
        </g>
      </g>
      <g id="Group_12" data-name="Group 12" transform="translate(71.241 70.911)">
        <g id="Group_11" data-name="Group 11">
          <path id="Path_40" data-name="Path 40" class="cls-2" d="M378.643,372.5l-11.811-11.811a2.953,2.953,0,1,0-4.176,4.176l11.811,11.811a2.953,2.953,0,0,0,4.176-4.176Z" transform="translate(-361.792 -359.827)"/>
        </g>
      </g>
    </g>
  </g>
</svg>
